<?xml version="1.0" encoding="UTF-8" standalone="no"?>
<!DOCTYPE svg PUBLIC "-//W3C//DTD SVG 1.1//EN"
 "http://www.w3.org/Graphics/SVG/1.1/DTD/svg11.dtd">
<!-- Generated by graphviz version 2.28.0 (20111028.1807)
 -->
<!-- Title: G Pages: 1 -->
<svg width="136pt" height="97pt"
 viewBox="0.00 0.00 136.00 97.00" xmlns="http://www.w3.org/2000/svg" xmlns:xlink="http://www.w3.org/1999/xlink">
<g id="graph1" class="graph" transform="scale(1 1) rotate(0) translate(4 93)">
<title>G</title>
<polygon fill="white" stroke="white" points="-4,5 -4,-93 133,-93 133,5 -4,5"/>
<g id="graph2" class="cluster"><title>cluster_FSTestHelper</title>
<polyline fill="none" stroke="gray" points="20,-8 108,-8 "/>
<path fill="none" stroke="gray" d="M108,-8C114,-8 120,-14 120,-20"/>
<polyline fill="none" stroke="gray" points="120,-20 120,-69 "/>
<path fill="none" stroke="gray" d="M120,-69C120,-75 114,-81 108,-81"/>
<polyline fill="none" stroke="gray" points="108,-81 20,-81 "/>
<path fill="none" stroke="gray" d="M20,-81C14,-81 8,-75 8,-69"/>
<polyline fill="none" stroke="gray" points="8,-69 8,-20 "/>
<path fill="none" stroke="gray" d="M8,-20C8,-14 14,-8 20,-8"/>
<text text-anchor="middle" x="64" y="-66" font-family="Times,serif" font-size="11.00" fill="gray">FSTestHelper</text>
</g>
<!-- \\FSTestHelper\\FSTestHelper -->
<g id="node2" class="node"><title>\\FSTestHelper\\FSTestHelper</title>
<a xlink:href="FSTestHelper.html" xlink:title="FSTestHelper" target="_parent">
<polygon fill="none" stroke="black" points="111.713,-52 16.2869,-52 16.2869,-16 111.713,-16 111.713,-52"/>
<text text-anchor="middle" x="64" y="-29.6" font-family="Courier,monospace" font-size="11.00">FSTestHelper</text>
</a>
</g>
</g>
</svg>
